<mxfile host="app.diagrams.net" modified="2020-10-06T14:10:29.804Z" agent="5.0 (Windows)" etag="x3Z11DtcI9TKr3x3Tkqc" version="13.7.7" type="github">
  <diagram id="yZyWORpR4N3k2B5hO9Oc" name="Page-1">
    <mxGraphModel dx="910" dy="487" grid="1" gridSize="10" guides="1" tooltips="1" connect="1" arrows="1" fold="1" page="1" pageScale="1" pageWidth="1169" pageHeight="827" math="0" shadow="0">
      <root>
        <mxCell id="0" />
        <mxCell id="1" parent="0" />
        <mxCell id="q7ujqtCJ4n2Gz-Uq-b1V-1" value="HANSARD - Plenary Audio Recordings" style="swimlane;html=1;childLayout=stackLayout;resizeParent=1;resizeParentMax=0;horizontal=1;startSize=20;horizontalStack=0;" vertex="1" parent="1">
          <mxGeometry x="20" y="20" width="1130" height="670" as="geometry" />
        </mxCell>
        <mxCell id="q7ujqtCJ4n2Gz-Uq-b1V-2" value="Hansard Editor" style="swimlane;html=1;startSize=20;horizontal=0;" vertex="1" parent="q7ujqtCJ4n2Gz-Uq-b1V-1">
          <mxGeometry y="20" width="1130" height="210" as="geometry" />
        </mxCell>
        <mxCell id="q7ujqtCJ4n2Gz-Uq-b1V-10" value="Start" style="rounded=1;whiteSpace=wrap;html=1;" vertex="1" parent="q7ujqtCJ4n2Gz-Uq-b1V-2">
          <mxGeometry x="120" y="10" width="100" height="50" as="geometry" />
        </mxCell>
        <mxCell id="q7ujqtCJ4n2Gz-Uq-b1V-12" value="" style="edgeStyle=orthogonalEdgeStyle;rounded=0;orthogonalLoop=1;jettySize=auto;html=1;" edge="1" parent="q7ujqtCJ4n2Gz-Uq-b1V-2" source="q7ujqtCJ4n2Gz-Uq-b1V-10" target="q7ujqtCJ4n2Gz-Uq-b1V-13">
          <mxGeometry relative="1" as="geometry">
            <mxPoint x="170" y="140" as="targetPoint" />
          </mxGeometry>
        </mxCell>
        <mxCell id="q7ujqtCJ4n2Gz-Uq-b1V-13" value="Allocate Officers particular time for recording of plenary proceedings " style="rounded=0;whiteSpace=wrap;html=1;" vertex="1" parent="q7ujqtCJ4n2Gz-Uq-b1V-2">
          <mxGeometry x="110" y="130" width="120" height="60" as="geometry" />
        </mxCell>
        <mxCell id="q7ujqtCJ4n2Gz-Uq-b1V-20" value="Segment the audio to allocate a segment of the recording for transcription" style="whiteSpace=wrap;html=1;rounded=0;" vertex="1" parent="q7ujqtCJ4n2Gz-Uq-b1V-2">
          <mxGeometry x="280" y="130" width="120" height="60" as="geometry" />
        </mxCell>
        <mxCell id="q7ujqtCJ4n2Gz-Uq-b1V-3" value="Hansard Reporter" style="swimlane;html=1;startSize=20;horizontal=0;" vertex="1" parent="q7ujqtCJ4n2Gz-Uq-b1V-1">
          <mxGeometry y="230" width="1130" height="200" as="geometry" />
        </mxCell>
        <mxCell id="q7ujqtCJ4n2Gz-Uq-b1V-14" value="Operate recording equipment during the proceedings" style="whiteSpace=wrap;html=1;rounded=0;" vertex="1" parent="q7ujqtCJ4n2Gz-Uq-b1V-3">
          <mxGeometry x="110" y="30" width="120" height="60" as="geometry" />
        </mxCell>
        <mxCell id="q7ujqtCJ4n2Gz-Uq-b1V-22" value="Officers use the recorded material to transcribe it into word format" style="whiteSpace=wrap;html=1;rounded=0;" vertex="1" parent="q7ujqtCJ4n2Gz-Uq-b1V-3">
          <mxGeometry x="370" y="30" width="120" height="60" as="geometry" />
        </mxCell>
        <mxCell id="q7ujqtCJ4n2Gz-Uq-b1V-16" value="Write all the happenings observed at the plenary" style="shape=process;whiteSpace=wrap;html=1;backgroundOutline=1;rounded=0;" vertex="1" parent="q7ujqtCJ4n2Gz-Uq-b1V-3">
          <mxGeometry x="110" y="134" width="120" height="60" as="geometry" />
        </mxCell>
        <mxCell id="q7ujqtCJ4n2Gz-Uq-b1V-19" value="" style="edgeStyle=orthogonalEdgeStyle;rounded=0;orthogonalLoop=1;jettySize=auto;html=1;entryX=0.5;entryY=1;entryDx=0;entryDy=0;" edge="1" parent="q7ujqtCJ4n2Gz-Uq-b1V-3" source="q7ujqtCJ4n2Gz-Uq-b1V-16" target="q7ujqtCJ4n2Gz-Uq-b1V-14">
          <mxGeometry relative="1" as="geometry">
            <mxPoint x="170" y="54" as="targetPoint" />
          </mxGeometry>
        </mxCell>
        <mxCell id="q7ujqtCJ4n2Gz-Uq-b1V-4" value="ICT Officer" style="swimlane;html=1;startSize=20;horizontal=0;" vertex="1" parent="q7ujqtCJ4n2Gz-Uq-b1V-1">
          <mxGeometry y="430" width="1130" height="120" as="geometry" />
        </mxCell>
        <mxCell id="q7ujqtCJ4n2Gz-Uq-b1V-9" value="Clerk" style="swimlane;html=1;startSize=20;horizontal=0;" vertex="1" parent="q7ujqtCJ4n2Gz-Uq-b1V-1">
          <mxGeometry y="550" width="1130" height="120" as="geometry" />
        </mxCell>
        <mxCell id="q7ujqtCJ4n2Gz-Uq-b1V-15" value="" style="edgeStyle=orthogonalEdgeStyle;rounded=0;orthogonalLoop=1;jettySize=auto;html=1;" edge="1" parent="q7ujqtCJ4n2Gz-Uq-b1V-1" source="q7ujqtCJ4n2Gz-Uq-b1V-13" target="q7ujqtCJ4n2Gz-Uq-b1V-14">
          <mxGeometry relative="1" as="geometry" />
        </mxCell>
        <mxCell id="q7ujqtCJ4n2Gz-Uq-b1V-21" value="" style="edgeStyle=orthogonalEdgeStyle;rounded=0;orthogonalLoop=1;jettySize=auto;html=1;" edge="1" parent="q7ujqtCJ4n2Gz-Uq-b1V-1" source="q7ujqtCJ4n2Gz-Uq-b1V-14" target="q7ujqtCJ4n2Gz-Uq-b1V-20">
          <mxGeometry relative="1" as="geometry" />
        </mxCell>
        <mxCell id="q7ujqtCJ4n2Gz-Uq-b1V-23" value="" style="edgeStyle=orthogonalEdgeStyle;rounded=0;orthogonalLoop=1;jettySize=auto;html=1;" edge="1" parent="q7ujqtCJ4n2Gz-Uq-b1V-1" source="q7ujqtCJ4n2Gz-Uq-b1V-20" target="q7ujqtCJ4n2Gz-Uq-b1V-22">
          <mxGeometry relative="1" as="geometry">
            <Array as="points">
              <mxPoint x="430" y="180" />
            </Array>
          </mxGeometry>
        </mxCell>
      </root>
    </mxGraphModel>
  </diagram>
</mxfile>
